<svg width="754" height="228" viewBox="0 0 754 228" fill="none" xmlns="http://www.w3.org/2000/svg">
<path d="M155.165 11.575V15.925H132.065V35.5H151.565V39.85H132.065V64H126.815V11.575H155.165ZM163.427 15.325C162.377 15.325 161.477 14.95 160.727 14.2C159.977 13.45 159.602 12.525 159.602 11.425C159.602 10.325 159.977 9.425 160.727 8.725C161.477 7.975 162.377 7.6 163.427 7.6C164.477 7.6 165.377 7.975 166.127 8.725C166.877 9.425 167.252 10.325 167.252 11.425C167.252 12.525 166.877 13.45 166.127 14.2C165.377 14.95 164.477 15.325 163.427 15.325ZM166.052 23.05V64H160.802V23.05H166.052ZM194.141 22.3C199.041 22.3 203.041 23.825 206.141 26.875C209.241 29.875 210.791 34.25 210.791 40V64H205.616V40.6C205.616 36.15 204.491 32.75 202.241 30.4C200.041 28.05 197.016 26.875 193.166 26.875C189.216 26.875 186.066 28.125 183.716 30.625C181.366 33.125 180.191 36.8 180.191 41.65V64H174.941V23.05H180.191V30.025C181.491 27.525 183.366 25.625 185.816 24.325C188.266 22.975 191.041 22.3 194.141 22.3ZM217.002 43.45C217.002 39.25 217.852 35.575 219.552 32.425C221.252 29.225 223.577 26.775 226.527 25.075C229.527 23.325 232.902 22.45 236.652 22.45C240.252 22.45 243.502 23.325 246.402 25.075C249.302 26.825 251.427 29.1 252.777 31.9V8.5H258.027V64H252.777V54.85C251.527 57.7 249.477 60.05 246.627 61.9C243.777 63.7 240.427 64.6 236.577 64.6C232.827 64.6 229.452 63.725 226.452 61.975C223.502 60.225 221.177 57.75 219.477 54.55C217.827 51.35 217.002 47.65 217.002 43.45ZM252.777 43.525C252.777 40.225 252.102 37.325 250.752 34.825C249.402 32.325 247.552 30.4 245.202 29.05C242.902 27.7 240.352 27.025 237.552 27.025C234.652 27.025 232.052 27.675 229.752 28.975C227.452 30.275 225.627 32.175 224.277 34.675C222.977 37.125 222.327 40.05 222.327 43.45C222.327 46.8 222.977 49.75 224.277 52.3C225.627 54.8 227.452 56.725 229.752 58.075C232.052 59.375 234.652 60.025 237.552 60.025C240.352 60.025 242.902 59.35 245.202 58C247.552 56.65 249.402 54.725 250.752 52.225C252.102 49.725 252.777 46.825 252.777 43.525ZM87.6283 161.575V165.925H64.5283V185.5H84.0283V189.85H64.5283V214H59.2783V161.575H87.6283ZM98.5156 180.325C99.6656 177.775 101.416 175.8 103.766 174.4C106.166 173 109.091 172.3 112.541 172.3V177.775H111.116C107.316 177.775 104.266 178.8 101.966 180.85C99.6656 182.9 98.5156 186.325 98.5156 191.125V214H93.2656V173.05H98.5156V180.325ZM135.363 214.6C131.513 214.6 128.038 213.75 124.938 212.05C121.888 210.3 119.463 207.85 117.663 204.7C115.913 201.5 115.038 197.775 115.038 193.525C115.038 189.275 115.938 185.575 117.738 182.425C119.538 179.225 121.988 176.775 125.088 175.075C128.188 173.325 131.663 172.45 135.513 172.45C139.363 172.45 142.838 173.325 145.938 175.075C149.088 176.775 151.538 179.225 153.288 182.425C155.088 185.575 155.988 189.275 155.988 193.525C155.988 197.725 155.088 201.425 153.288 204.625C151.488 207.825 149.013 210.3 145.863 212.05C142.713 213.75 139.213 214.6 135.363 214.6ZM135.363 210.025C138.063 210.025 140.563 209.425 142.863 208.225C145.163 206.975 147.013 205.125 148.413 202.675C149.863 200.175 150.588 197.125 150.588 193.525C150.588 189.925 149.888 186.9 148.488 184.45C147.088 181.95 145.238 180.1 142.938 178.9C140.638 177.65 138.138 177.025 135.438 177.025C132.738 177.025 130.238 177.65 127.938 178.9C125.638 180.1 123.788 181.95 122.388 184.45C121.038 186.9 120.363 189.925 120.363 193.525C120.363 197.125 121.038 200.175 122.388 202.675C123.788 205.125 125.613 206.975 127.863 208.225C130.163 209.425 132.663 210.025 135.363 210.025ZM211.309 172.3C216.109 172.3 220.009 173.825 223.009 176.875C226.059 179.875 227.584 184.25 227.584 190V214H222.409V190.6C222.409 186.15 221.334 182.75 219.184 180.4C217.034 178.05 214.109 176.875 210.409 176.875C206.559 176.875 203.484 178.15 201.184 180.7C198.884 183.25 197.734 186.95 197.734 191.8V214H192.559V190.6C192.559 186.15 191.484 182.75 189.334 180.4C187.184 178.05 184.234 176.875 180.484 176.875C176.634 176.875 173.559 178.15 171.259 180.7C168.959 183.25 167.809 186.95 167.809 191.8V214H162.559V173.05H167.809V180.1C169.109 177.55 170.959 175.625 173.359 174.325C175.759 172.975 178.434 172.3 181.384 172.3C184.934 172.3 188.034 173.15 190.684 174.85C193.384 176.55 195.334 179.05 196.534 182.35C197.634 179.1 199.509 176.625 202.159 174.925C204.859 173.175 207.909 172.3 211.309 172.3ZM284.199 201.55H260.349L255.774 214H250.224L269.349 162.25H275.274L294.324 214H288.774L284.199 201.55ZM282.624 197.2L272.274 168.85L261.924 197.2H282.624ZM305 158.5V214H299.75V158.5H305ZM319.139 158.5V214H313.889V158.5H319.139ZM369.158 214.525C364.308 214.525 359.908 213.4 355.958 211.15C352.008 208.85 348.883 205.675 346.583 201.625C344.333 197.525 343.208 192.9 343.208 187.75C343.208 182.6 344.333 178 346.583 173.95C348.883 169.85 352.008 166.675 355.958 164.425C359.908 162.125 364.308 160.975 369.158 160.975C374.058 160.975 378.483 162.125 382.433 164.425C386.383 166.675 389.483 169.85 391.733 173.95C393.983 178 395.108 182.6 395.108 187.75C395.108 192.9 393.983 197.525 391.733 201.625C389.483 205.675 386.383 208.85 382.433 211.15C378.483 213.4 374.058 214.525 369.158 214.525ZM369.158 209.95C373.058 209.95 376.558 209.05 379.658 207.25C382.758 205.45 385.208 202.875 387.008 199.525C388.808 196.125 389.708 192.2 389.708 187.75C389.708 183.3 388.808 179.4 387.008 176.05C385.208 172.7 382.758 170.125 379.658 168.325C376.558 166.525 373.058 165.625 369.158 165.625C365.258 165.625 361.758 166.525 358.658 168.325C355.558 170.125 353.108 172.7 351.308 176.05C349.508 179.4 348.608 183.3 348.608 187.75C348.608 192.2 349.508 196.125 351.308 199.525C353.108 202.875 355.558 205.45 358.658 207.25C361.758 209.05 365.258 209.95 369.158 209.95ZM416.265 208.9L430.065 173.05H435.615L419.19 214H413.265L396.84 173.05H402.465L416.265 208.9ZM476.78 191.425C476.78 193.225 476.73 194.6 476.63 195.55H442.655C442.805 198.65 443.555 201.3 444.905 203.5C446.255 205.7 448.03 207.375 450.23 208.525C452.43 209.625 454.83 210.175 457.43 210.175C460.83 210.175 463.68 209.35 465.98 207.7C468.33 206.05 469.88 203.825 470.63 201.025H476.18C475.18 205.025 473.03 208.3 469.73 210.85C466.48 213.35 462.38 214.6 457.43 214.6C453.58 214.6 450.13 213.75 447.08 212.05C444.03 210.3 441.63 207.85 439.88 204.7C438.18 201.5 437.33 197.775 437.33 193.525C437.33 189.275 438.18 185.55 439.88 182.35C441.58 179.15 443.955 176.7 447.005 175C450.055 173.3 453.53 172.45 457.43 172.45C461.33 172.45 464.73 173.3 467.63 175C470.58 176.7 472.83 179 474.38 181.9C475.98 184.75 476.78 187.925 476.78 191.425ZM471.455 191.275C471.505 188.225 470.88 185.625 469.58 183.475C468.33 181.325 466.605 179.7 464.405 178.6C462.205 177.5 459.805 176.95 457.205 176.95C453.305 176.95 449.98 178.2 447.23 180.7C444.48 183.2 442.955 186.725 442.655 191.275H471.455ZM488.636 180.325C489.786 177.775 491.536 175.8 493.886 174.4C496.286 173 499.211 172.3 502.661 172.3V177.775H501.236C497.436 177.775 494.386 178.8 492.086 180.85C489.786 182.9 488.636 186.325 488.636 191.125V214H483.386V173.05H488.636V180.325ZM530.39 161.575V214H525.14V161.575H530.39ZM558.478 172.3C563.378 172.3 567.378 173.825 570.478 176.875C573.578 179.875 575.128 184.25 575.128 190V214H569.953V190.6C569.953 186.15 568.828 182.75 566.578 180.4C564.378 178.05 561.353 176.875 557.503 176.875C553.553 176.875 550.403 178.125 548.053 180.625C545.703 183.125 544.528 186.8 544.528 191.65V214H539.278V173.05H544.528V180.025C545.828 177.525 547.703 175.625 550.153 174.325C552.603 172.975 555.378 172.3 558.478 172.3ZM581.339 193.45C581.339 189.25 582.189 185.575 583.889 182.425C585.589 179.225 587.914 176.775 590.864 175.075C593.864 173.325 597.239 172.45 600.989 172.45C604.589 172.45 607.839 173.325 610.739 175.075C613.639 176.825 615.764 179.1 617.114 181.9V158.5H622.364V214H617.114V204.85C615.864 207.7 613.814 210.05 610.964 211.9C608.114 213.7 604.764 214.6 600.914 214.6C597.164 214.6 593.789 213.725 590.789 211.975C587.839 210.225 585.514 207.75 583.814 204.55C582.164 201.35 581.339 197.65 581.339 193.45ZM617.114 193.525C617.114 190.225 616.439 187.325 615.089 184.825C613.739 182.325 611.889 180.4 609.539 179.05C607.239 177.7 604.689 177.025 601.889 177.025C598.989 177.025 596.389 177.675 594.089 178.975C591.789 180.275 589.964 182.175 588.614 184.675C587.314 187.125 586.664 190.05 586.664 193.45C586.664 196.8 587.314 199.75 588.614 202.3C589.964 204.8 591.789 206.725 594.089 208.075C596.389 209.375 598.989 210.025 601.889 210.025C604.689 210.025 607.239 209.35 609.539 208C611.889 206.65 613.739 204.725 615.089 202.225C616.439 199.725 617.114 196.825 617.114 193.525ZM633.975 165.325C632.925 165.325 632.025 164.95 631.275 164.2C630.525 163.45 630.15 162.525 630.15 161.425C630.15 160.325 630.525 159.425 631.275 158.725C632.025 157.975 632.925 157.6 633.975 157.6C635.025 157.6 635.925 157.975 636.675 158.725C637.425 159.425 637.8 160.325 637.8 161.425C637.8 162.525 637.425 163.45 636.675 164.2C635.925 164.95 635.025 165.325 633.975 165.325ZM636.6 173.05V214H631.35V173.05H636.6ZM643.088 193.45C643.088 189.25 643.913 185.575 645.563 182.425C647.263 179.225 649.588 176.775 652.538 175.075C655.538 173.325 658.913 172.45 662.663 172.45C666.563 172.45 669.913 173.35 672.713 175.15C675.563 176.95 677.613 179.25 678.863 182.05V173.05H684.113V214H678.863V204.925C677.563 207.725 675.488 210.05 672.638 211.9C669.838 213.7 666.488 214.6 662.588 214.6C658.888 214.6 655.538 213.725 652.538 211.975C649.588 210.225 647.263 207.75 645.563 204.55C643.913 201.35 643.088 197.65 643.088 193.45ZM678.863 193.525C678.863 190.225 678.188 187.325 676.838 184.825C675.488 182.325 673.638 180.4 671.288 179.05C668.988 177.7 666.438 177.025 663.638 177.025C660.738 177.025 658.138 177.675 655.838 178.975C653.538 180.275 651.713 182.175 650.363 184.675C649.063 187.125 648.413 190.05 648.413 193.45C648.413 196.8 649.063 199.75 650.363 202.3C651.713 204.8 653.538 206.725 655.838 208.075C658.138 209.375 660.738 210.025 663.638 210.025C666.438 210.025 668.988 209.35 671.288 208C673.638 206.65 675.488 204.725 676.838 202.225C678.188 199.725 678.863 196.825 678.863 193.525ZM693.999 214.375C692.899 214.375 691.974 214 691.224 213.25C690.524 212.5 690.174 211.575 690.174 210.475C690.174 209.375 690.524 208.475 691.224 207.775C691.974 207.025 692.899 206.65 693.999 206.65C695.049 206.65 695.924 207.025 696.624 207.775C697.374 208.475 697.749 209.375 697.749 210.475C697.749 211.575 697.374 212.5 696.624 213.25C695.924 214 695.049 214.375 693.999 214.375Z" fill="#898989"/>
<path d="M316.431 11.35V21.625H302.481V64H289.656V21.625H275.706V11.35H316.431ZM338.917 64.6C334.817 64.6 331.117 63.725 327.817 61.975C324.567 60.225 321.992 57.725 320.092 54.475C318.242 51.225 317.317 47.425 317.317 43.075C317.317 38.775 318.267 35 320.167 31.75C322.067 28.45 324.667 25.925 327.967 24.175C331.267 22.425 334.967 21.55 339.067 21.55C343.167 21.55 346.867 22.425 350.167 24.175C353.467 25.925 356.067 28.45 357.967 31.75C359.867 35 360.817 38.775 360.817 43.075C360.817 47.375 359.842 51.175 357.892 54.475C355.992 57.725 353.367 60.225 350.017 61.975C346.717 63.725 343.017 64.6 338.917 64.6ZM338.917 53.5C341.367 53.5 343.442 52.6 345.142 50.8C346.892 49 347.767 46.425 347.767 43.075C347.767 39.725 346.917 37.15 345.217 35.35C343.567 33.55 341.517 32.65 339.067 32.65C336.567 32.65 334.492 33.55 332.842 35.35C331.192 37.1 330.367 39.675 330.367 43.075C330.367 46.425 331.167 49 332.767 50.8C334.417 52.6 336.467 53.5 338.917 53.5ZM377.446 28.075C378.696 26.125 380.421 24.55 382.621 23.35C384.821 22.15 387.396 21.55 390.346 21.55C393.796 21.55 396.921 22.425 399.721 24.175C402.521 25.925 404.721 28.425 406.321 31.675C407.971 34.925 408.796 38.7 408.796 43C408.796 47.3 407.971 51.1 406.321 54.4C404.721 57.65 402.521 60.175 399.721 61.975C396.921 63.725 393.796 64.6 390.346 64.6C387.446 64.6 384.871 64 382.621 62.8C380.421 61.6 378.696 60.05 377.446 58.15V83.95H364.621V22.15H377.446V28.075ZM395.746 43C395.746 39.8 394.846 37.3 393.046 35.5C391.296 33.65 389.121 32.725 386.521 32.725C383.971 32.725 381.796 33.65 379.996 35.5C378.246 37.35 377.371 39.875 377.371 43.075C377.371 46.275 378.246 48.8 379.996 50.65C381.796 52.5 383.971 53.425 386.521 53.425C389.071 53.425 391.246 52.5 393.046 50.65C394.846 48.75 395.746 46.2 395.746 43ZM452.268 64L441.318 44.125H438.243V64H425.418V11.35H446.943C451.093 11.35 454.618 12.075 457.518 13.525C460.468 14.975 462.668 16.975 464.118 19.525C465.568 22.025 466.293 24.825 466.293 27.925C466.293 31.425 465.293 34.55 463.293 37.3C461.343 40.05 458.443 42 454.593 43.15L466.743 64H452.268ZM438.243 35.05H446.193C448.543 35.05 450.293 34.475 451.443 33.325C452.643 32.175 453.243 30.55 453.243 28.45C453.243 26.45 452.643 24.875 451.443 23.725C450.293 22.575 448.543 22 446.193 22H438.243V35.05ZM468.794 43C468.794 38.7 469.594 34.925 471.194 31.675C472.844 28.425 475.069 25.925 477.869 24.175C480.669 22.425 483.794 21.55 487.244 21.55C490.194 21.55 492.769 22.15 494.969 23.35C497.219 24.55 498.944 26.125 500.144 28.075V22.15H512.969V64H500.144V58.075C498.894 60.025 497.144 61.6 494.894 62.8C492.694 64 490.119 64.6 487.169 64.6C483.769 64.6 480.669 63.725 477.869 61.975C475.069 60.175 472.844 57.65 471.194 54.4C469.594 51.1 468.794 47.3 468.794 43ZM500.144 43.075C500.144 39.875 499.244 37.35 497.444 35.5C495.694 33.65 493.544 32.725 490.994 32.725C488.444 32.725 486.269 33.65 484.469 35.5C482.719 37.3 481.844 39.8 481.844 43C481.844 46.2 482.719 48.75 484.469 50.65C486.269 52.5 488.444 53.425 490.994 53.425C493.544 53.425 495.694 52.5 497.444 50.65C499.244 48.8 500.144 46.275 500.144 43.075ZM542.572 53.125V64H536.047C531.397 64 527.772 62.875 525.172 60.625C522.572 58.325 521.272 54.6 521.272 49.45V32.8H516.172V22.15H521.272V11.95H534.097V22.15H542.497V32.8H534.097V49.6C534.097 50.85 534.397 51.75 534.997 52.3C535.597 52.85 536.597 53.125 537.997 53.125H542.572ZM586.166 42.4C586.166 43.6 586.091 44.85 585.941 46.15H556.916C557.116 48.75 557.941 50.75 559.391 52.15C560.891 53.5 562.716 54.175 564.866 54.175C568.066 54.175 570.291 52.825 571.541 50.125H585.191C584.491 52.875 583.216 55.35 581.366 57.55C579.566 59.75 577.291 61.475 574.541 62.725C571.791 63.975 568.716 64.6 565.316 64.6C561.216 64.6 557.566 63.725 554.366 61.975C551.166 60.225 548.666 57.725 546.866 54.475C545.066 51.225 544.166 47.425 544.166 43.075C544.166 38.725 545.041 34.925 546.791 31.675C548.591 28.425 551.091 25.925 554.291 24.175C557.491 22.425 561.166 21.55 565.316 21.55C569.366 21.55 572.966 22.4 576.116 24.1C579.266 25.8 581.716 28.225 583.466 31.375C585.266 34.525 586.166 38.2 586.166 42.4ZM573.041 39.025C573.041 36.825 572.291 35.075 570.791 33.775C569.291 32.475 567.416 31.825 565.166 31.825C563.016 31.825 561.191 32.45 559.691 33.7C558.241 34.95 557.341 36.725 556.991 39.025H573.041ZM587.382 43C587.382 38.7 588.182 34.925 589.782 31.675C591.432 28.425 593.657 25.925 596.457 24.175C599.257 22.425 602.382 21.55 605.832 21.55C608.582 21.55 611.082 22.125 613.332 23.275C615.632 24.425 617.432 25.975 618.732 27.925V8.5H631.557V64H618.732V58C617.532 60 615.807 61.6 613.557 62.8C611.357 64 608.782 64.6 605.832 64.6C602.382 64.6 599.257 63.725 596.457 61.975C593.657 60.175 591.432 57.65 589.782 54.4C588.182 51.1 587.382 47.3 587.382 43ZM618.732 43.075C618.732 39.875 617.832 37.35 616.032 35.5C614.282 33.65 612.132 32.725 609.582 32.725C607.032 32.725 604.857 33.65 603.057 35.5C601.307 37.3 600.432 39.8 600.432 43C600.432 46.2 601.307 48.75 603.057 50.65C604.857 52.5 607.032 53.425 609.582 53.425C612.132 53.425 614.282 52.5 616.032 50.65C617.832 48.8 618.732 46.275 618.732 43.075ZM25.6361 129.1H42.4361V139H12.8111V86.35H25.6361V129.1ZM43.0033 118C43.0033 113.7 43.8033 109.925 45.4033 106.675C47.0533 103.425 49.2783 100.925 52.0783 99.175C54.8783 97.425 58.0033 96.55 61.4533 96.55C64.4033 96.55 66.9783 97.15 69.1783 98.35C71.4283 99.55 73.1533 101.125 74.3533 103.075V97.15H87.1783V139H74.3533V133.075C73.1033 135.025 71.3533 136.6 69.1033 137.8C66.9033 139 64.3283 139.6 61.3783 139.6C57.9783 139.6 54.8783 138.725 52.0783 136.975C49.2783 135.175 47.0533 132.65 45.4033 129.4C43.8033 126.1 43.0033 122.3 43.0033 118ZM74.3533 118.075C74.3533 114.875 73.4533 112.35 71.6533 110.5C69.9033 108.65 67.7533 107.725 65.2033 107.725C62.6533 107.725 60.4783 108.65 58.6783 110.5C56.9283 112.3 56.0533 114.8 56.0533 118C56.0533 121.2 56.9283 123.75 58.6783 125.65C60.4783 127.5 62.6533 128.425 65.2033 128.425C67.7533 128.425 69.9033 127.5 71.6533 125.65C73.4533 123.8 74.3533 121.275 74.3533 118.075ZM153.532 97.15L142.207 139H128.032L121.432 111.85L114.607 139H100.507L89.1066 97.15H101.932L107.857 127.075L114.907 97.15H128.482L135.607 126.925L141.457 97.15H153.532ZM198.172 97.15L171.922 158.875H158.122L167.722 137.575L150.697 97.15H165.022L174.697 123.325L184.297 97.15H198.172ZM239.26 117.4C239.26 118.6 239.185 119.85 239.035 121.15H210.01C210.21 123.75 211.035 125.75 212.485 127.15C213.985 128.5 215.81 129.175 217.96 129.175C221.16 129.175 223.385 127.825 224.635 125.125H238.285C237.585 127.875 236.31 130.35 234.46 132.55C232.66 134.75 230.385 136.475 227.635 137.725C224.885 138.975 221.81 139.6 218.41 139.6C214.31 139.6 210.66 138.725 207.46 136.975C204.26 135.225 201.76 132.725 199.96 129.475C198.16 126.225 197.26 122.425 197.26 118.075C197.26 113.725 198.135 109.925 199.885 106.675C201.685 103.425 204.185 100.925 207.385 99.175C210.585 97.425 214.26 96.55 218.41 96.55C222.46 96.55 226.06 97.4 229.21 99.1C232.36 100.8 234.81 103.225 236.56 106.375C238.36 109.525 239.26 113.2 239.26 117.4ZM226.135 114.025C226.135 111.825 225.385 110.075 223.885 108.775C222.385 107.475 220.51 106.825 218.26 106.825C216.11 106.825 214.285 107.45 212.785 108.7C211.335 109.95 210.435 111.725 210.085 114.025H226.135ZM255.851 104.125C257.351 101.825 259.226 100.025 261.476 98.725C263.726 97.375 266.226 96.7 268.976 96.7V110.275H265.451C262.251 110.275 259.851 110.975 258.251 112.375C256.651 113.725 255.851 116.125 255.851 119.575V139H243.026V97.15H255.851V104.125ZM289.131 139.6C285.481 139.6 282.231 138.975 279.381 137.725C276.531 136.475 274.281 134.775 272.631 132.625C270.981 130.425 270.056 127.975 269.856 125.275H282.531C282.681 126.725 283.356 127.9 284.556 128.8C285.756 129.7 287.231 130.15 288.981 130.15C290.581 130.15 291.806 129.85 292.656 129.25C293.556 128.6 294.006 127.775 294.006 126.775C294.006 125.575 293.381 124.7 292.131 124.15C290.881 123.55 288.856 122.9 286.056 122.2C283.056 121.5 280.556 120.775 278.556 120.025C276.556 119.225 274.831 118 273.381 116.35C271.931 114.65 271.206 112.375 271.206 109.525C271.206 107.125 271.856 104.95 273.156 103C274.506 101 276.456 99.425 279.006 98.275C281.606 97.125 284.681 96.55 288.231 96.55C293.481 96.55 297.606 97.85 300.606 100.45C303.656 103.05 305.406 106.5 305.856 110.8H294.006C293.806 109.35 293.156 108.2 292.056 107.35C291.006 106.5 289.606 106.075 287.856 106.075C286.356 106.075 285.206 106.375 284.406 106.975C283.606 107.525 283.206 108.3 283.206 109.3C283.206 110.5 283.831 111.4 285.081 112C286.381 112.6 288.381 113.2 291.081 113.8C294.181 114.6 296.706 115.4 298.656 116.2C300.606 116.95 302.306 118.2 303.756 119.95C305.256 121.65 306.031 123.95 306.081 126.85C306.081 129.3 305.381 131.5 303.981 133.45C302.631 135.35 300.656 136.85 298.056 137.95C295.506 139.05 292.531 139.6 289.131 139.6ZM364.096 139L359.221 134.275C354.371 137.975 348.571 139.825 341.821 139.825C337.771 139.825 334.246 139.175 331.246 137.875C328.246 136.525 325.921 134.65 324.271 132.25C322.671 129.8 321.871 126.95 321.871 123.7C321.871 120.4 322.746 117.425 324.496 114.775C326.296 112.075 328.971 109.875 332.521 108.175C331.221 106.575 330.296 105.05 329.746 103.6C329.196 102.1 328.921 100.475 328.921 98.725C328.921 96.225 329.571 93.95 330.871 91.9C332.171 89.85 334.046 88.25 336.496 87.1C338.996 85.9 341.946 85.3 345.346 85.3C348.796 85.3 351.721 85.925 354.121 87.175C356.521 88.425 358.321 90.1 359.521 92.2C360.721 94.3 361.271 96.6 361.171 99.1H349.096C349.146 97.75 348.796 96.725 348.046 96.025C347.346 95.275 346.396 94.9 345.196 94.9C343.996 94.9 342.996 95.25 342.196 95.95C341.396 96.65 340.996 97.55 340.996 98.65C340.996 99.7 341.321 100.8 341.971 101.95C342.671 103.1 343.746 104.425 345.196 105.925L358.021 118.45C358.121 118.2 358.246 117.9 358.396 117.55C358.596 117.2 358.796 116.8 358.996 116.35L361.771 111.625H374.596L370.996 118.15C369.646 121.1 368.096 123.9 366.346 126.55L379.021 139H364.096ZM342.421 129.475C345.771 129.475 348.746 128.525 351.346 126.625L339.646 115.3C336.046 117.15 334.246 119.65 334.246 122.8C334.246 124.7 334.971 126.3 336.421 127.6C337.921 128.85 339.921 129.475 342.421 129.475ZM406.378 129.1H423.178V139H393.553V86.35H406.378V129.1ZM423.746 118C423.746 113.7 424.546 109.925 426.146 106.675C427.796 103.425 430.021 100.925 432.821 99.175C435.621 97.425 438.746 96.55 442.196 96.55C445.146 96.55 447.721 97.15 449.921 98.35C452.171 99.55 453.896 101.125 455.096 103.075V97.15H467.921V139H455.096V133.075C453.846 135.025 452.096 136.6 449.846 137.8C447.646 139 445.071 139.6 442.121 139.6C438.721 139.6 435.621 138.725 432.821 136.975C430.021 135.175 427.796 132.65 426.146 129.4C424.546 126.1 423.746 122.3 423.746 118ZM455.096 118.075C455.096 114.875 454.196 112.35 452.396 110.5C450.646 108.65 448.496 107.725 445.946 107.725C443.396 107.725 441.221 108.65 439.421 110.5C437.671 112.3 436.796 114.8 436.796 118C436.796 121.2 437.671 123.75 439.421 125.65C441.221 127.5 443.396 128.425 445.946 128.425C448.496 128.425 450.646 127.5 452.396 125.65C454.196 123.8 455.096 121.275 455.096 118.075ZM534.274 97.15L522.949 139H508.774L502.174 111.85L495.349 139H481.249L469.849 97.15H482.674L488.599 127.075L495.649 97.15H509.224L516.349 126.925L522.199 97.15H534.274ZM583.333 86.35V96.625H561.883V107.725H577.933V117.7H561.883V139H549.058V86.35H583.333ZM593.524 92.8C591.274 92.8 589.424 92.15 587.974 90.85C586.574 89.5 585.874 87.85 585.874 85.9C585.874 83.9 586.574 82.25 587.974 80.95C589.424 79.6 591.274 78.925 593.524 78.925C595.724 78.925 597.524 79.6 598.924 80.95C600.374 82.25 601.099 83.9 601.099 85.9C601.099 87.85 600.374 89.5 598.924 90.85C597.524 92.15 595.724 92.8 593.524 92.8ZM599.899 97.15V139H587.074V97.15H599.899ZM619.018 104.125C620.518 101.825 622.393 100.025 624.643 98.725C626.893 97.375 629.393 96.7 632.143 96.7V110.275H628.618C625.418 110.275 623.018 110.975 621.418 112.375C619.818 113.725 619.018 116.125 619.018 119.575V139H606.193V97.15H619.018V104.125ZM688.673 96.7C693.873 96.7 697.998 98.275 701.048 101.425C704.148 104.575 705.698 108.95 705.698 114.55V139H692.948V116.275C692.948 113.575 692.223 111.5 690.773 110.05C689.373 108.55 687.423 107.8 684.923 107.8C682.423 107.8 680.448 108.55 678.998 110.05C677.598 111.5 676.898 113.575 676.898 116.275V139H664.148V116.275C664.148 113.575 663.423 111.5 661.973 110.05C660.573 108.55 658.623 107.8 656.123 107.8C653.623 107.8 651.648 108.55 650.198 110.05C648.798 111.5 648.098 113.575 648.098 116.275V139H635.273V97.15H648.098V102.4C649.398 100.65 651.098 99.275 653.198 98.275C655.298 97.225 657.673 96.7 660.323 96.7C663.473 96.7 666.273 97.375 668.723 98.725C671.223 100.075 673.173 102 674.573 104.5C676.023 102.2 677.998 100.325 680.498 98.875C682.998 97.425 685.723 96.7 688.673 96.7ZM728.693 139.6C725.043 139.6 721.793 138.975 718.943 137.725C716.093 136.475 713.843 134.775 712.193 132.625C710.543 130.425 709.618 127.975 709.418 125.275H722.093C722.243 126.725 722.918 127.9 724.118 128.8C725.318 129.7 726.793 130.15 728.543 130.15C730.143 130.15 731.368 129.85 732.218 129.25C733.118 128.6 733.568 127.775 733.568 126.775C733.568 125.575 732.943 124.7 731.693 124.15C730.443 123.55 728.418 122.9 725.618 122.2C722.618 121.5 720.118 120.775 718.118 120.025C716.118 119.225 714.393 118 712.943 116.35C711.493 114.65 710.768 112.375 710.768 109.525C710.768 107.125 711.418 104.95 712.718 103C714.068 101 716.018 99.425 718.568 98.275C721.168 97.125 724.243 96.55 727.793 96.55C733.043 96.55 737.168 97.85 740.168 100.45C743.218 103.05 744.968 106.5 745.418 110.8H733.568C733.368 109.35 732.718 108.2 731.618 107.35C730.568 106.5 729.168 106.075 727.418 106.075C725.918 106.075 724.768 106.375 723.968 106.975C723.168 107.525 722.768 108.3 722.768 109.3C722.768 110.5 723.393 111.4 724.643 112C725.943 112.6 727.943 113.2 730.643 113.8C733.743 114.6 736.268 115.4 738.218 116.2C740.168 116.95 741.868 118.2 743.318 119.95C744.818 121.65 745.593 123.95 745.643 126.85C745.643 129.3 744.943 131.5 743.543 133.45C742.193 135.35 740.218 136.85 737.618 137.95C735.068 139.05 732.093 139.6 728.693 139.6Z" fill="black"/>
</svg>
