<svg width="733" height="207" viewBox="0 0 733 207" fill="none" xmlns="http://www.w3.org/2000/svg">
<path d="M29.7 3.97499V8.32499H6.59998V27.9H26.1V32.25H6.59998V56.4H1.34998V3.97499H29.7ZM37.9623 7.72499C36.9123 7.72499 36.0123 7.34999 35.2623 6.59999C34.5123 5.84999 34.1373 4.92499 34.1373 3.82499C34.1373 2.72499 34.5123 1.82499 35.2623 1.12499C36.0123 0.374991 36.9123 -8.64267e-06 37.9623 -8.64267e-06C39.0123 -8.64267e-06 39.9123 0.374991 40.6623 1.12499C41.4123 1.82499 41.7873 2.72499 41.7873 3.82499C41.7873 4.92499 41.4123 5.84999 40.6623 6.59999C39.9123 7.34999 39.0123 7.72499 37.9623 7.72499ZM40.5873 15.45V56.4H35.3373V15.45H40.5873ZM68.676 14.7C73.576 14.7 77.576 16.225 80.676 19.275C83.776 22.275 85.326 26.65 85.326 32.4V56.4H80.151V33C80.151 28.55 79.026 25.15 76.776 22.8C74.576 20.45 71.551 19.275 67.701 19.275C63.751 19.275 60.601 20.525 58.251 23.025C55.901 25.525 54.726 29.2 54.726 34.05V56.4H49.476V15.45H54.726V22.425C56.026 19.925 57.901 18.025 60.351 16.725C62.801 15.375 65.576 14.7 68.676 14.7ZM91.5369 35.85C91.5369 31.65 92.3869 27.975 94.0869 24.825C95.7869 21.625 98.1119 19.175 101.062 17.475C104.062 15.725 107.437 14.85 111.187 14.85C114.787 14.85 118.037 15.725 120.937 17.475C123.837 19.225 125.962 21.5 127.312 24.3V0.899993H132.562V56.4H127.312V47.25C126.062 50.1 124.012 52.45 121.162 54.3C118.312 56.1 114.962 57 111.112 57C107.362 57 103.987 56.125 100.987 54.375C98.0369 52.625 95.7119 50.15 94.0119 46.95C92.3619 43.75 91.5369 40.05 91.5369 35.85ZM127.312 35.925C127.312 32.625 126.637 29.725 125.287 27.225C123.937 24.725 122.087 22.8 119.737 21.45C117.437 20.1 114.887 19.425 112.087 19.425C109.187 19.425 106.587 20.075 104.287 21.375C101.987 22.675 100.162 24.575 98.8119 27.075C97.5119 29.525 96.8619 32.45 96.8619 35.85C96.8619 39.2 97.5119 42.15 98.8119 44.7C100.162 47.2 101.987 49.125 104.287 50.475C106.587 51.775 109.187 52.425 112.087 52.425C114.887 52.425 117.437 51.75 119.737 50.4C122.087 49.05 123.937 47.125 125.287 44.625C126.637 42.125 127.312 39.225 127.312 35.925ZM29.7 153.975V158.325H6.59998V177.9H26.1V182.25H6.59998V206.4H1.34998V153.975H29.7ZM40.5873 172.725C41.7373 170.175 43.4873 168.2 45.8373 166.8C48.2373 165.4 51.1623 164.7 54.6123 164.7V170.175H53.1873C49.3873 170.175 46.3373 171.2 44.0373 173.25C41.7373 175.3 40.5873 178.725 40.5873 183.525V206.4H35.3373V165.45H40.5873V172.725ZM77.4351 207C73.5851 207 70.1101 206.15 67.0101 204.45C63.9601 202.7 61.5351 200.25 59.7351 197.1C57.9851 193.9 57.1101 190.175 57.1101 185.925C57.1101 181.675 58.0101 177.975 59.8101 174.825C61.6101 171.625 64.0601 169.175 67.1601 167.475C70.2601 165.725 73.7351 164.85 77.5851 164.85C81.4351 164.85 84.9101 165.725 88.0101 167.475C91.1601 169.175 93.6101 171.625 95.3601 174.825C97.1601 177.975 98.0601 181.675 98.0601 185.925C98.0601 190.125 97.1601 193.825 95.3601 197.025C93.5601 200.225 91.0851 202.7 87.9351 204.45C84.7851 206.15 81.2851 207 77.4351 207ZM77.4351 202.425C80.1351 202.425 82.6351 201.825 84.9351 200.625C87.2351 199.375 89.0851 197.525 90.4851 195.075C91.9351 192.575 92.6601 189.525 92.6601 185.925C92.6601 182.325 91.9601 179.3 90.5601 176.85C89.1601 174.35 87.3101 172.5 85.0101 171.3C82.7101 170.05 80.2101 169.425 77.5101 169.425C74.8101 169.425 72.3101 170.05 70.0101 171.3C67.7101 172.5 65.8601 174.35 64.4601 176.85C63.1101 179.3 62.4351 182.325 62.4351 185.925C62.4351 189.525 63.1101 192.575 64.4601 195.075C65.8601 197.525 67.6851 199.375 69.9351 200.625C72.2351 201.825 74.7351 202.425 77.4351 202.425ZM153.38 164.7C158.18 164.7 162.08 166.225 165.08 169.275C168.13 172.275 169.655 176.65 169.655 182.4V206.4H164.48V183C164.48 178.55 163.405 175.15 161.255 172.8C159.105 170.45 156.18 169.275 152.48 169.275C148.63 169.275 145.555 170.55 143.255 173.1C140.955 175.65 139.805 179.35 139.805 184.2V206.4H134.63V183C134.63 178.55 133.555 175.15 131.405 172.8C129.255 170.45 126.305 169.275 122.555 169.275C118.705 169.275 115.63 170.55 113.33 173.1C111.03 175.65 109.88 179.35 109.88 184.2V206.4H104.63V165.45H109.88V172.5C111.18 169.95 113.03 168.025 115.43 166.725C117.83 165.375 120.505 164.7 123.455 164.7C127.005 164.7 130.105 165.55 132.755 167.25C135.455 168.95 137.405 171.45 138.605 174.75C139.705 171.5 141.58 169.025 144.23 167.325C146.93 165.575 149.98 164.7 153.38 164.7ZM226.271 193.95H202.421L197.846 206.4H192.296L211.421 154.65H217.346L236.396 206.4H230.846L226.271 193.95ZM224.696 189.6L214.346 161.25L203.996 189.6H224.696ZM247.072 150.9V206.4H241.822V150.9H247.072ZM261.21 150.9V206.4H255.96V150.9H261.21ZM311.23 206.925C306.38 206.925 301.98 205.8 298.03 203.55C294.08 201.25 290.955 198.075 288.655 194.025C286.405 189.925 285.28 185.3 285.28 180.15C285.28 175 286.405 170.4 288.655 166.35C290.955 162.25 294.08 159.075 298.03 156.825C301.98 154.525 306.38 153.375 311.23 153.375C316.13 153.375 320.555 154.525 324.505 156.825C328.455 159.075 331.555 162.25 333.805 166.35C336.055 170.4 337.18 175 337.18 180.15C337.18 185.3 336.055 189.925 333.805 194.025C331.555 198.075 328.455 201.25 324.505 203.55C320.555 205.8 316.13 206.925 311.23 206.925ZM311.23 202.35C315.13 202.35 318.63 201.45 321.73 199.65C324.83 197.85 327.28 195.275 329.08 191.925C330.88 188.525 331.78 184.6 331.78 180.15C331.78 175.7 330.88 171.8 329.08 168.45C327.28 165.1 324.83 162.525 321.73 160.725C318.63 158.925 315.13 158.025 311.23 158.025C307.33 158.025 303.83 158.925 300.73 160.725C297.63 162.525 295.18 165.1 293.38 168.45C291.58 171.8 290.68 175.7 290.68 180.15C290.68 184.6 291.58 188.525 293.38 191.925C295.18 195.275 297.63 197.85 300.73 199.65C303.83 201.45 307.33 202.35 311.23 202.35ZM358.337 201.3L372.137 165.45H377.686L361.262 206.4H355.336L338.911 165.45H344.536L358.337 201.3ZM418.852 183.825C418.852 185.625 418.802 187 418.702 187.95H384.727C384.877 191.05 385.627 193.7 386.977 195.9C388.327 198.1 390.102 199.775 392.302 200.925C394.502 202.025 396.902 202.575 399.502 202.575C402.902 202.575 405.752 201.75 408.052 200.1C410.402 198.45 411.952 196.225 412.702 193.425H418.252C417.252 197.425 415.102 200.7 411.802 203.25C408.552 205.75 404.452 207 399.502 207C395.652 207 392.202 206.15 389.152 204.45C386.102 202.7 383.702 200.25 381.952 197.1C380.252 193.9 379.402 190.175 379.402 185.925C379.402 181.675 380.252 177.95 381.952 174.75C383.652 171.55 386.027 169.1 389.077 167.4C392.127 165.7 395.602 164.85 399.502 164.85C403.402 164.85 406.802 165.7 409.702 167.4C412.652 169.1 414.902 171.4 416.452 174.3C418.052 177.15 418.852 180.325 418.852 183.825ZM413.527 183.675C413.577 180.625 412.952 178.025 411.652 175.875C410.402 173.725 408.677 172.1 406.477 171C404.277 169.9 401.877 169.35 399.277 169.35C395.377 169.35 392.052 170.6 389.302 173.1C386.552 175.6 385.027 179.125 384.727 183.675H413.527ZM430.707 172.725C431.857 170.175 433.607 168.2 435.957 166.8C438.357 165.4 441.282 164.7 444.732 164.7V170.175H443.307C439.507 170.175 436.457 171.2 434.157 173.25C431.857 175.3 430.707 178.725 430.707 183.525V206.4H425.457V165.45H430.707V172.725ZM472.461 153.975V206.4H467.211V153.975H472.461ZM500.55 164.7C505.45 164.7 509.45 166.225 512.55 169.275C515.65 172.275 517.2 176.65 517.2 182.4V206.4H512.025V183C512.025 178.55 510.9 175.15 508.65 172.8C506.45 170.45 503.425 169.275 499.575 169.275C495.625 169.275 492.475 170.525 490.125 173.025C487.775 175.525 486.6 179.2 486.6 184.05V206.4H481.35V165.45H486.6V172.425C487.9 169.925 489.775 168.025 492.225 166.725C494.675 165.375 497.45 164.7 500.55 164.7ZM523.411 185.85C523.411 181.65 524.261 177.975 525.961 174.825C527.661 171.625 529.986 169.175 532.936 167.475C535.936 165.725 539.311 164.85 543.061 164.85C546.661 164.85 549.911 165.725 552.811 167.475C555.711 169.225 557.836 171.5 559.186 174.3V150.9H564.436V206.4H559.186V197.25C557.936 200.1 555.886 202.45 553.036 204.3C550.186 206.1 546.836 207 542.986 207C539.236 207 535.861 206.125 532.861 204.375C529.911 202.625 527.586 200.15 525.886 196.95C524.236 193.75 523.411 190.05 523.411 185.85ZM559.186 185.925C559.186 182.625 558.511 179.725 557.161 177.225C555.811 174.725 553.961 172.8 551.611 171.45C549.311 170.1 546.761 169.425 543.961 169.425C541.061 169.425 538.461 170.075 536.161 171.375C533.861 172.675 532.036 174.575 530.686 177.075C529.386 179.525 528.736 182.45 528.736 185.85C528.736 189.2 529.386 192.15 530.686 194.7C532.036 197.2 533.861 199.125 536.161 200.475C538.461 201.775 541.061 202.425 543.961 202.425C546.761 202.425 549.311 201.75 551.611 200.4C553.961 199.05 555.811 197.125 557.161 194.625C558.511 192.125 559.186 189.225 559.186 185.925ZM576.046 157.725C574.996 157.725 574.096 157.35 573.346 156.6C572.596 155.85 572.221 154.925 572.221 153.825C572.221 152.725 572.596 151.825 573.346 151.125C574.096 150.375 574.996 150 576.046 150C577.096 150 577.996 150.375 578.746 151.125C579.496 151.825 579.871 152.725 579.871 153.825C579.871 154.925 579.496 155.85 578.746 156.6C577.996 157.35 577.096 157.725 576.046 157.725ZM578.671 165.45V206.4H573.421V165.45H578.671ZM585.16 185.85C585.16 181.65 585.985 177.975 587.635 174.825C589.335 171.625 591.66 169.175 594.61 167.475C597.61 165.725 600.985 164.85 604.735 164.85C608.635 164.85 611.985 165.75 614.785 167.55C617.635 169.35 619.685 171.65 620.935 174.45V165.45H626.185V206.4H620.935V197.325C619.635 200.125 617.56 202.45 614.71 204.3C611.91 206.1 608.56 207 604.66 207C600.96 207 597.61 206.125 594.61 204.375C591.66 202.625 589.335 200.15 587.635 196.95C585.985 193.75 585.16 190.05 585.16 185.85ZM620.935 185.925C620.935 182.625 620.26 179.725 618.91 177.225C617.56 174.725 615.71 172.8 613.36 171.45C611.06 170.1 608.51 169.425 605.71 169.425C602.81 169.425 600.21 170.075 597.91 171.375C595.61 172.675 593.785 174.575 592.435 177.075C591.135 179.525 590.485 182.45 590.485 185.85C590.485 189.2 591.135 192.15 592.435 194.7C593.785 197.2 595.61 199.125 597.91 200.475C600.21 201.775 602.81 202.425 605.71 202.425C608.51 202.425 611.06 201.75 613.36 200.4C615.71 199.05 617.56 197.125 618.91 194.625C620.26 192.125 620.935 189.225 620.935 185.925ZM636.07 206.775C634.97 206.775 634.045 206.4 633.295 205.65C632.595 204.9 632.245 203.975 632.245 202.875C632.245 201.775 632.595 200.875 633.295 200.175C634.045 199.425 634.97 199.05 636.07 199.05C637.12 199.05 637.995 199.425 638.695 200.175C639.445 200.875 639.82 201.775 639.82 202.875C639.82 203.975 639.445 204.9 638.695 205.65C637.995 206.4 637.12 206.775 636.07 206.775Z" fill="#898989"/>
<path d="M190.966 3.74999V14.025H177.016V56.4H164.191V14.025H150.241V3.74999H190.966ZM213.452 57C209.352 57 205.652 56.125 202.352 54.375C199.102 52.625 196.527 50.125 194.627 46.875C192.777 43.625 191.852 39.825 191.852 35.475C191.852 31.175 192.802 27.4 194.702 24.15C196.602 20.85 199.202 18.325 202.502 16.575C205.802 14.825 209.502 13.95 213.602 13.95C217.702 13.95 221.402 14.825 224.702 16.575C228.002 18.325 230.602 20.85 232.502 24.15C234.402 27.4 235.352 31.175 235.352 35.475C235.352 39.775 234.377 43.575 232.427 46.875C230.527 50.125 227.902 52.625 224.552 54.375C221.252 56.125 217.552 57 213.452 57ZM213.452 45.9C215.902 45.9 217.977 45 219.677 43.2C221.427 41.4 222.302 38.825 222.302 35.475C222.302 32.125 221.452 29.55 219.752 27.75C218.102 25.95 216.052 25.05 213.602 25.05C211.102 25.05 209.027 25.95 207.377 27.75C205.727 29.5 204.902 32.075 204.902 35.475C204.902 38.825 205.702 41.4 207.302 43.2C208.952 45 211.002 45.9 213.452 45.9ZM251.981 20.475C253.231 18.525 254.956 16.95 257.156 15.75C259.356 14.55 261.931 13.95 264.881 13.95C268.331 13.95 271.456 14.825 274.256 16.575C277.056 18.325 279.256 20.825 280.856 24.075C282.506 27.325 283.331 31.1 283.331 35.4C283.331 39.7 282.506 43.5 280.856 46.8C279.256 50.05 277.056 52.575 274.256 54.375C271.456 56.125 268.331 57 264.881 57C261.981 57 259.406 56.4 257.156 55.2C254.956 54 253.231 52.45 251.981 50.55V76.35H239.156V14.55H251.981V20.475ZM270.281 35.4C270.281 32.2 269.381 29.7 267.581 27.9C265.831 26.05 263.656 25.125 261.056 25.125C258.506 25.125 256.331 26.05 254.531 27.9C252.781 29.75 251.906 32.275 251.906 35.475C251.906 38.675 252.781 41.2 254.531 43.05C256.331 44.9 258.506 45.825 261.056 45.825C263.606 45.825 265.781 44.9 267.581 43.05C269.381 41.15 270.281 38.6 270.281 35.4ZM326.803 56.4L315.853 36.525H312.778V56.4H299.953V3.74999H321.478C325.628 3.74999 329.153 4.47499 332.053 5.92499C335.003 7.37499 337.203 9.37499 338.653 11.925C340.103 14.425 340.828 17.225 340.828 20.325C340.828 23.825 339.828 26.95 337.828 29.7C335.878 32.45 332.978 34.4 329.128 35.55L341.278 56.4H326.803ZM312.778 27.45H320.728C323.078 27.45 324.828 26.875 325.978 25.725C327.178 24.575 327.778 22.95 327.778 20.85C327.778 18.85 327.178 17.275 325.978 16.125C324.828 14.975 323.078 14.4 320.728 14.4H312.778V27.45ZM343.329 35.4C343.329 31.1 344.129 27.325 345.729 24.075C347.379 20.825 349.604 18.325 352.404 16.575C355.204 14.825 358.329 13.95 361.779 13.95C364.729 13.95 367.304 14.55 369.504 15.75C371.754 16.95 373.479 18.525 374.679 20.475V14.55H387.504V56.4H374.679V50.475C373.429 52.425 371.679 54 369.429 55.2C367.229 56.4 364.654 57 361.704 57C358.304 57 355.204 56.125 352.404 54.375C349.604 52.575 347.379 50.05 345.729 46.8C344.129 43.5 343.329 39.7 343.329 35.4ZM374.679 35.475C374.679 32.275 373.779 29.75 371.979 27.9C370.229 26.05 368.079 25.125 365.529 25.125C362.979 25.125 360.804 26.05 359.004 27.9C357.254 29.7 356.379 32.2 356.379 35.4C356.379 38.6 357.254 41.15 359.004 43.05C360.804 44.9 362.979 45.825 365.529 45.825C368.079 45.825 370.229 44.9 371.979 43.05C373.779 41.2 374.679 38.675 374.679 35.475ZM417.107 45.525V56.4H410.582C405.932 56.4 402.307 55.275 399.707 53.025C397.107 50.725 395.807 47 395.807 41.85V25.2H390.707V14.55H395.807V4.34999H408.632V14.55H417.032V25.2H408.632V42C408.632 43.25 408.932 44.15 409.532 44.7C410.132 45.25 411.132 45.525 412.532 45.525H417.107ZM460.701 34.8C460.701 36 460.626 37.25 460.476 38.55H431.451C431.651 41.15 432.476 43.15 433.926 44.55C435.426 45.9 437.251 46.575 439.401 46.575C442.601 46.575 444.826 45.225 446.076 42.525H459.726C459.026 45.275 457.751 47.75 455.901 49.95C454.101 52.15 451.826 53.875 449.076 55.125C446.326 56.375 443.251 57 439.851 57C435.751 57 432.101 56.125 428.901 54.375C425.701 52.625 423.201 50.125 421.401 46.875C419.601 43.625 418.701 39.825 418.701 35.475C418.701 31.125 419.576 27.325 421.326 24.075C423.126 20.825 425.626 18.325 428.826 16.575C432.026 14.825 435.701 13.95 439.851 13.95C443.901 13.95 447.501 14.8 450.651 16.5C453.801 18.2 456.251 20.625 458.001 23.775C459.801 26.925 460.701 30.6 460.701 34.8ZM447.576 31.425C447.576 29.225 446.826 27.475 445.326 26.175C443.826 24.875 441.951 24.225 439.701 24.225C437.551 24.225 435.726 24.85 434.226 26.1C432.776 27.35 431.876 29.125 431.526 31.425H447.576ZM461.917 35.4C461.917 31.1 462.717 27.325 464.317 24.075C465.967 20.825 468.192 18.325 470.992 16.575C473.792 14.825 476.917 13.95 480.367 13.95C483.117 13.95 485.617 14.525 487.867 15.675C490.167 16.825 491.967 18.375 493.267 20.325V0.899993H506.092V56.4H493.267V50.4C492.067 52.4 490.342 54 488.092 55.2C485.892 56.4 483.317 57 480.367 57C476.917 57 473.792 56.125 470.992 54.375C468.192 52.575 465.967 50.05 464.317 46.8C462.717 43.5 461.917 39.7 461.917 35.4ZM493.267 35.475C493.267 32.275 492.367 29.75 490.567 27.9C488.817 26.05 486.667 25.125 484.117 25.125C481.567 25.125 479.392 26.05 477.592 27.9C475.842 29.7 474.967 32.2 474.967 35.4C474.967 38.6 475.842 41.15 477.592 43.05C479.392 44.9 481.567 45.825 484.117 45.825C486.667 45.825 488.817 44.9 490.567 43.05C492.367 41.2 493.267 38.675 493.267 35.475ZM12.825 121.5H29.625V131.4H-2.42107e-05V78.75H12.825V121.5ZM30.1922 110.4C30.1922 106.1 30.9922 102.325 32.5922 99.075C34.2422 95.825 36.4672 93.325 39.2672 91.575C42.0672 89.825 45.1922 88.95 48.6422 88.95C51.5922 88.95 54.1672 89.55 56.3672 90.75C58.6172 91.95 60.3422 93.525 61.5422 95.475V89.55H74.3672V131.4H61.5422V125.475C60.2922 127.425 58.5422 129 56.2922 130.2C54.0922 131.4 51.5172 132 48.5672 132C45.1672 132 42.0672 131.125 39.2672 129.375C36.4672 127.575 34.2422 125.05 32.5922 121.8C30.9922 118.5 30.1922 114.7 30.1922 110.4ZM61.5422 110.475C61.5422 107.275 60.6422 104.75 58.8422 102.9C57.0922 101.05 54.9422 100.125 52.3922 100.125C49.8422 100.125 47.6672 101.05 45.8672 102.9C44.1172 104.7 43.2422 107.2 43.2422 110.4C43.2422 113.6 44.1172 116.15 45.8672 118.05C47.6672 119.9 49.8422 120.825 52.3922 120.825C54.9422 120.825 57.0922 119.9 58.8422 118.05C60.6422 116.2 61.5422 113.675 61.5422 110.475ZM140.72 89.55L129.395 131.4H115.22L108.62 104.25L101.795 131.4H87.6955L76.2955 89.55H89.1205L95.0455 119.475L102.095 89.55H115.67L122.795 119.325L128.645 89.55H140.72ZM185.361 89.55L159.111 151.275H145.311L154.911 129.975L137.886 89.55H152.211L161.886 115.725L171.486 89.55H185.361ZM226.449 109.8C226.449 111 226.374 112.25 226.224 113.55H197.199C197.399 116.15 198.224 118.15 199.674 119.55C201.174 120.9 202.999 121.575 205.149 121.575C208.349 121.575 210.574 120.225 211.824 117.525H225.474C224.774 120.275 223.499 122.75 221.649 124.95C219.849 127.15 217.574 128.875 214.824 130.125C212.074 131.375 208.999 132 205.599 132C201.499 132 197.849 131.125 194.649 129.375C191.449 127.625 188.949 125.125 187.149 121.875C185.349 118.625 184.449 114.825 184.449 110.475C184.449 106.125 185.324 102.325 187.074 99.075C188.874 95.825 191.374 93.325 194.574 91.575C197.774 89.825 201.449 88.95 205.599 88.95C209.649 88.95 213.249 89.8 216.399 91.5C219.549 93.2 221.999 95.625 223.749 98.775C225.549 101.925 226.449 105.6 226.449 109.8ZM213.324 106.425C213.324 104.225 212.574 102.475 211.074 101.175C209.574 99.875 207.699 99.225 205.449 99.225C203.299 99.225 201.474 99.85 199.974 101.1C198.524 102.35 197.624 104.125 197.274 106.425H213.324ZM243.04 96.525C244.54 94.225 246.415 92.425 248.665 91.125C250.915 89.775 253.415 89.1 256.165 89.1V102.675H252.64C249.44 102.675 247.04 103.375 245.44 104.775C243.84 106.125 243.04 108.525 243.04 111.975V131.4H230.215V89.55H243.04V96.525ZM276.32 132C272.67 132 269.42 131.375 266.57 130.125C263.72 128.875 261.47 127.175 259.82 125.025C258.17 122.825 257.245 120.375 257.045 117.675H269.72C269.87 119.125 270.545 120.3 271.745 121.2C272.945 122.1 274.42 122.55 276.17 122.55C277.77 122.55 278.995 122.25 279.845 121.65C280.745 121 281.195 120.175 281.195 119.175C281.195 117.975 280.57 117.1 279.32 116.55C278.07 115.95 276.045 115.3 273.245 114.6C270.245 113.9 267.745 113.175 265.745 112.425C263.745 111.625 262.02 110.4 260.57 108.75C259.12 107.05 258.395 104.775 258.395 101.925C258.395 99.525 259.045 97.35 260.345 95.4C261.695 93.4 263.645 91.825 266.195 90.675C268.795 89.525 271.87 88.95 275.42 88.95C280.67 88.95 284.795 90.25 287.795 92.85C290.845 95.45 292.595 98.9 293.045 103.2H281.195C280.995 101.75 280.345 100.6 279.245 99.75C278.195 98.9 276.795 98.475 275.045 98.475C273.545 98.475 272.395 98.775 271.595 99.375C270.795 99.925 270.395 100.7 270.395 101.7C270.395 102.9 271.02 103.8 272.27 104.4C273.57 105 275.57 105.6 278.27 106.2C281.37 107 283.895 107.8 285.845 108.6C287.795 109.35 289.495 110.6 290.945 112.35C292.445 114.05 293.22 116.35 293.27 119.25C293.27 121.7 292.57 123.9 291.17 125.85C289.82 127.75 287.845 129.25 285.245 130.35C282.695 131.45 279.72 132 276.32 132ZM351.285 131.4L346.41 126.675C341.56 130.375 335.76 132.225 329.01 132.225C324.96 132.225 321.435 131.575 318.435 130.275C315.435 128.925 313.11 127.05 311.46 124.65C309.86 122.2 309.06 119.35 309.06 116.1C309.06 112.8 309.935 109.825 311.685 107.175C313.485 104.475 316.16 102.275 319.71 100.575C318.41 98.975 317.485 97.45 316.935 96C316.385 94.5 316.11 92.875 316.11 91.125C316.11 88.625 316.76 86.35 318.06 84.3C319.36 82.25 321.235 80.65 323.685 79.5C326.185 78.3 329.135 77.7 332.535 77.7C335.985 77.7 338.91 78.325 341.31 79.575C343.71 80.825 345.51 82.5 346.71 84.6C347.91 86.7 348.46 89 348.36 91.5H336.285C336.335 90.15 335.985 89.125 335.235 88.425C334.535 87.675 333.585 87.3 332.385 87.3C331.185 87.3 330.185 87.65 329.385 88.35C328.585 89.05 328.185 89.95 328.185 91.05C328.185 92.1 328.51 93.2 329.16 94.35C329.86 95.5 330.935 96.825 332.385 98.325L345.21 110.85C345.31 110.6 345.435 110.3 345.585 109.95C345.785 109.6 345.985 109.2 346.185 108.75L348.96 104.025H361.785L358.185 110.55C356.835 113.5 355.285 116.3 353.535 118.95L366.21 131.4H351.285ZM329.61 121.875C332.96 121.875 335.935 120.925 338.535 119.025L326.835 107.7C323.235 109.55 321.435 112.05 321.435 115.2C321.435 117.1 322.16 118.7 323.61 120C325.11 121.25 327.11 121.875 329.61 121.875ZM393.567 121.5H410.367V131.4H380.742V78.75H393.567V121.5ZM410.934 110.4C410.934 106.1 411.734 102.325 413.334 99.075C414.984 95.825 417.209 93.325 420.009 91.575C422.809 89.825 425.934 88.95 429.384 88.95C432.334 88.95 434.909 89.55 437.109 90.75C439.359 91.95 441.084 93.525 442.284 95.475V89.55H455.109V131.4H442.284V125.475C441.034 127.425 439.284 129 437.034 130.2C434.834 131.4 432.259 132 429.309 132C425.909 132 422.809 131.125 420.009 129.375C417.209 127.575 414.984 125.05 413.334 121.8C411.734 118.5 410.934 114.7 410.934 110.4ZM442.284 110.475C442.284 107.275 441.384 104.75 439.584 102.9C437.834 101.05 435.684 100.125 433.134 100.125C430.584 100.125 428.409 101.05 426.609 102.9C424.859 104.7 423.984 107.2 423.984 110.4C423.984 113.6 424.859 116.15 426.609 118.05C428.409 119.9 430.584 120.825 433.134 120.825C435.684 120.825 437.834 119.9 439.584 118.05C441.384 116.2 442.284 113.675 442.284 110.475ZM521.463 89.55L510.138 131.4H495.963L489.363 104.25L482.538 131.4H468.438L457.038 89.55H469.863L475.788 119.475L482.838 89.55H496.413L503.538 119.325L509.388 89.55H521.463ZM570.522 78.75V89.025H549.072V100.125H565.122V110.1H549.072V131.4H536.247V78.75H570.522ZM580.713 85.2C578.463 85.2 576.613 84.55 575.163 83.25C573.763 81.9 573.063 80.25 573.063 78.3C573.063 76.3 573.763 74.65 575.163 73.35C576.613 72 578.463 71.325 580.713 71.325C582.913 71.325 584.713 72 586.113 73.35C587.563 74.65 588.288 76.3 588.288 78.3C588.288 80.25 587.563 81.9 586.113 83.25C584.713 84.55 582.913 85.2 580.713 85.2ZM587.088 89.55V131.4H574.263V89.55H587.088ZM606.207 96.525C607.707 94.225 609.582 92.425 611.832 91.125C614.082 89.775 616.582 89.1 619.332 89.1V102.675H615.807C612.607 102.675 610.207 103.375 608.607 104.775C607.007 106.125 606.207 108.525 606.207 111.975V131.4H593.382V89.55H606.207V96.525ZM675.862 89.1C681.062 89.1 685.187 90.675 688.237 93.825C691.337 96.975 692.887 101.35 692.887 106.95V131.4H680.137V108.675C680.137 105.975 679.412 103.9 677.962 102.45C676.562 100.95 674.612 100.2 672.112 100.2C669.612 100.2 667.637 100.95 666.187 102.45C664.787 103.9 664.087 105.975 664.087 108.675V131.4H651.337V108.675C651.337 105.975 650.612 103.9 649.162 102.45C647.762 100.95 645.812 100.2 643.312 100.2C640.812 100.2 638.837 100.95 637.387 102.45C635.987 103.9 635.287 105.975 635.287 108.675V131.4H622.462V89.55H635.287V94.8C636.587 93.05 638.287 91.675 640.387 90.675C642.487 89.625 644.862 89.1 647.512 89.1C650.662 89.1 653.462 89.775 655.912 91.125C658.412 92.475 660.362 94.4 661.762 96.9C663.212 94.6 665.187 92.725 667.687 91.275C670.187 89.825 672.912 89.1 675.862 89.1ZM715.881 132C712.231 132 708.981 131.375 706.131 130.125C703.281 128.875 701.031 127.175 699.381 125.025C697.731 122.825 696.806 120.375 696.606 117.675H709.281C709.431 119.125 710.106 120.3 711.306 121.2C712.506 122.1 713.981 122.55 715.731 122.55C717.331 122.55 718.556 122.25 719.406 121.65C720.306 121 720.756 120.175 720.756 119.175C720.756 117.975 720.131 117.1 718.881 116.55C717.631 115.95 715.606 115.3 712.806 114.6C709.806 113.9 707.306 113.175 705.306 112.425C703.306 111.625 701.581 110.4 700.131 108.75C698.681 107.05 697.956 104.775 697.956 101.925C697.956 99.525 698.606 97.35 699.906 95.4C701.256 93.4 703.206 91.825 705.756 90.675C708.356 89.525 711.431 88.95 714.981 88.95C720.231 88.95 724.356 90.25 727.356 92.85C730.406 95.45 732.156 98.9 732.606 103.2H720.756C720.556 101.75 719.906 100.6 718.806 99.75C717.756 98.9 716.356 98.475 714.606 98.475C713.106 98.475 711.956 98.775 711.156 99.375C710.356 99.925 709.956 100.7 709.956 101.7C709.956 102.9 710.581 103.8 711.831 104.4C713.131 105 715.131 105.6 717.831 106.2C720.931 107 723.456 107.8 725.406 108.6C727.356 109.35 729.056 110.6 730.506 112.35C732.006 114.05 732.781 116.35 732.831 119.25C732.831 121.7 732.131 123.9 730.731 125.85C729.381 127.75 727.406 129.25 724.806 130.35C722.256 131.45 719.281 132 715.881 132Z" fill="black"/>
</svg>
